# xmcd
#
# Track frame offsets: 
#        150
#        14459
#        32787
#        50007
#        67664
#        82771
#        99989
#        118646
#        131981
#        147586
#
# Disc length: 2189 seconds
#
# Revision: 1
# Processed by: cddbd v1.5.2PL0 Copyright (c) Steve Scherf et al.
# Submitted via: ExactAudioCopy v0.99pb3
#
DISCID=84088b0a
DTITLE=บุญตา  เมืองใหม่ - จำไว้นะ
DYEAR=2003
DGENRE=Country
TTITLE0=จำไว้นะ
TTITLE1=สุดเหงา
TTITLE2=บ่าวอุบลคนโก้
TTITLE3=ตำแหน่งชาวบ้าน
TTITLE4=น้ำตาหน้าแล้ง
TTITLE5=แฟนเก่าเศร้าใจ
TTITLE6=สายเกินไป
TTITLE7=ไหนว่าฮักเดียว
TTITLE8=สาวนาหาคู่
TTITLE9=ต้องฮักอีหลี
EXTD=
EXTT0=
EXTT1=
EXTT2=
EXTT3=
EXTT4=
EXTT5=
EXTT6=
EXTT7=
EXTT8=
EXTT9=
PLAYORDER=
